PathFileType  4	(X/Y/Z)
DataRate	CameraRate	NumFrames	NumMarkers	Units	OrigDataRate	OrigDataStartFrame	OrigNumFrames
  200.0 	  200.0 	    8 	     40 	mm 	  200.0 	      387 	    515
Frame#	Time	R.Shoulder			R.Clavicle			R.Bicep			R.Elbow			R.Forearm			R.Wrist			L.Shoulder			L.Clavicle			L.Scapula			L.Bicep			L.Elbow			L.Forearm			L.Wrist			R.ASIS			R.PSIS			S2			L.PSIS			L.ASIS			R.TH1			R.TH2			R.TH3			R.Knee			R.SH1			R.SH2			R.SH3			R.SH4			R.Ankle			R.Heel			R.MT5			L.TH1			L.TH2			L.TH3			L.TH4			L.Knee			L.SH1			L.SH2			L.SH3			L.Ankle			L.Heel			L.MT5			
		X1	Y1	Z1	X2	Y2	Z2	X3	Y3	Z3	X4	Y4	Z4	X5	Y5	Z5	X6	Y6	Z6	X7	Y7	Z7	X8	Y8	Z8	X9	Y9	Z9	X10	Y10	Z10	X11	Y11	Z11	X12	Y12	Z12	X13	Y13	Z13	X14	Y14	Z14	X15	Y15	Z15	X16	Y16	Z16	X17	Y17	Z17	X18	Y18	Z18	X19	Y19	Z19	X20	Y20	Z20	X21	Y21	Z21	X22	Y22	Z22	X23	Y23	Z23	X24	Y24	Z24	X25	Y25	Z25	X26	Y26	Z26	X27	Y27	Z27	X28	Y28	Z28	X29	Y29	Z29	X30	Y30	Z30	X31	Y31	Z31	X32	Y32	Z32	X33	Y33	Z33	X34	Y34	Z34	X35	Y35	Z35	X36	Y36	Z36	X37	Y37	Z37	X38	Y38	Z38	X39	Y39	Z39	X40	Y40	Z40	

387	1.93000	887.926	1313.402	-31.173	942.598	1294.835	-178.278	936.533	1094.134	-20.566	859.799	1011.229	72.403	974.503	941.342	48.144	997.295	840.702	110.594	896.185	1293.722	-413.580	950.547	1288.720	-234.230	770.213	1292.984	-306.371	886.077	1114.930	-430.511	760.221	1008.545	-476.975	794.840	898.427	-483.411	729.256	805.908	-520.522	950.192	858.274	-60.289	722.691	917.029	-164.582	722.469	911.976	-216.721	738.818	923.964	-270.940	980.624	872.151	-318.291	866.199	633.253	-4.066	722.772	648.720	-56.789	721.079	574.664	-67.642	747.610	441.300	-39.632	679.578	326.727	-31.363	630.785	273.906	-54.334	628.001	408.338	-99.085	573.668	356.774	-114.843	478.508	167.480	-114.337	422.409	196.595	-179.647	502.395	43.393	-87.938	1038.035	651.738	-337.872	1068.225	582.210	-305.093	909.940	587.217	-369.772	933.868	516.238	-346.238	1007.873	462.137	-334.031	1059.425	374.899	-328.977	949.405	371.135	-340.869	952.326	291.714	-340.123	1034.340	71.148	-315.522	949.814	39.080	-285.025	1140.453	21.143	-318.498
388	1.93500	894.140	1314.546	-31.528	949.167	1295.926	-178.597	942.552	1095.122	-20.464	864.781	1012.145	71.596	979.206	941.411	48.236	1000.693	840.549	110.603	903.441	1294.578	-413.881	957.255	1289.768	-234.522	777.058	1293.684	-307.095	895.184	1115.592	-430.359	770.759	1007.744	-477.508	806.932	898.054	-483.206	743.123	804.378	-520.453	956.965	859.163	-60.967	729.358	917.420	-164.751	729.130	912.573	-216.911	745.371	924.931	-271.161	987.249	873.237	-318.870	875.495	634.076	-3.060	731.944	647.490	-55.968	731.148	573.353	-66.333	759.473	441.205	-37.424	690.782	327.897	-29.731	641.447	275.723	-52.942	640.703	410.246	-97.591	585.752	359.430	-113.655	487.923	172.455	-113.845	433.477	204.042	-179.780	507.328	46.748	-87.904	1043.622	651.951	-338.449	1073.439	582.260	-305.643	915.238	588.155	-370.351	938.753	517.018	-346.737	1012.273	462.433	-334.424	1062.852	374.670	-329.445	952.574	372.179	-341.465	954.932	292.590	-340.300	1034.585	71.183	-315.700	950.140	39.188	-285.001	1140.594	21.175	-318.711
389	1.94000	900.332	1315.707	-31.860	955.709	1297.028	-178.881	948.518	1096.119	-20.345	869.737	1013.099	70.841	983.869	941.528	48.385	1004.040	840.445	110.658	910.697	1295.482	-414.140	963.940	1290.835	-234.776	783.886	1294.440	-307.793	904.328	1116.328	-430.141	781.374	1007.015	-478.029	819.149	897.800	-482.989	757.200	802.949	-520.351	963.619	860.096	-61.581	735.937	917.854	-164.956	735.715	913.196	-217.130	751.847	925.915	-271.404	993.796	874.284	-319.414	884.766	635.022	-2.009	741.114	646.301	-55.123	741.264	572.097	-65.004	771.437	441.222	-35.226	702.245	329.128	-28.110	652.414	277.568	-51.562	653.597	412.162	-96.093	598.077	362.057	-112.463	497.767	177.336	-113.364	444.921	211.172	-179.934	512.964	50.210	-87.799	1049.022	652.049	-339.094	1078.441	582.196	-306.264	920.294	589.050	-370.863	943.369	517.754	-347.172	1016.378	462.663	-334.805	1066.026	374.402	-329.929	955.510	373.135	-341.964	957.307	293.388	-340.393	1034.780	71.225	-315.833	950.423	39.252	-284.965	1140.690	21.268	-318.887
390	1.94500	906.501	1316.879	-32.169	962.225	1298.137	-179.128	954.427	1097.117	-20.216	874.669	1014.090	70.138	988.495	941.691	48.589	1007.342	840.389	110.762	917.952	1296.429	-414.357	970.600	1291.914	-234.990	790.696	1295.249	-308.468	913.504	1117.131	-429.856	792.059	1006.357	-478.542	831.482	897.668	-482.761	771.475	801.627	-520.214	970.153	861.066	-62.121	742.429	918.333	-165.202	742.226	913.846	-217.383	758.253	926.917	-271.673	1000.267	875.287	-319.913	894.005	636.094	-0.923	750.278	645.162	-54.265	751.420	570.907	-63.668	783.483	441.361	-33.054	713.948	330.421	-26.509	663.669	279.439	-50.202	666.654	414.083	-94.601	610.616	364.648	-111.277	508.027	182.085	-112.895	456.703	217.928	-180.104	519.339	53.740	-87.617	1054.238	652.033	-339.799	1083.233	582.017	-306.950	925.108	589.902	-371.303	947.716	518.448	-347.541	1020.195	462.829	-335.172	1068.959	374.096	-330.419	958.225	374.000	-342.369	959.464	294.109	-340.410	1034.929	71.269	-315.922	950.663	39.276	-284.920	1140.746	21.404	-319.027
391	1.95000	912.648	1318.058	-32.454	968.713	1299.248	-179.339	960.281	1098.112	-20.084	879.583	1015.112	69.489	993.083	941.895	48.846	1010.601	840.376	110.916	925.205	1297.410	-414.532	977.234	1293.002	-235.164	797.486	1296.110	-309.118	922.701	1117.996	-429.502	802.808	1005.773	-479.049	843.920	897.659	-482.521	785.938	800.420	-520.039	976.569	862.069	-62.580	748.838	918.858	-165.488	748.666	914.528	-217.670	764.594	927.938	-271.968	1006.669	876.243	-320.359	903.204	637.293	0.188	759.431	644.084	-53.406	761.609	569.796	-62.342	795.595	441.628	-30.925	725.870	331.775	-24.938	675.194	281.328	-48.869	679.846	416.006	-93.129	623.342	367.193	-110.106	518.686	186.666	-112.440	468.783	224.256	-180.284	526.481	57.299	-87.352	1059.273	651.904	-340.553	1087.816	581.726	-307.692	929.684	590.714	-371.666	951.797	519.104	-347.841	1023.735	462.934	-335.522	1071.665	373.754	-330.910	960.735	374.774	-342.689	961.417	294.752	-340.363	1035.040	71.311	-315.973	950.861	39.268	-284.871	1140.767	21.567	-319.131
392	1.95500	918.772	1319.239	-32.716	975.173	1300.357	-179.513	966.077	1099.096	-19.955	884.480	1016.163	68.894	997.637	942.136	49.152	1013.822	840.404	111.123	932.455	1298.421	-414.663	983.841	1294.095	-235.299	804.256	1297.021	-309.745	931.911	1118.919	-429.079	813.612	1005.264	-479.553	856.454	897.777	-482.267	800.576	799.335	-519.826	982.867	863.100	-62.951	755.168	919.432	-165.815	755.040	915.245	-217.991	770.875	928.979	-272.290	1013.005	877.147	-320.744	912.356	638.621	1.314	768.572	643.075	-52.557	771.825	568.773	-61.039	807.756	442.028	-28.855	737.992	333.188	-23.404	686.968	283.227	-47.569	693.144	417.927	-91.686	636.228	369.683	-108.959	529.728	191.042	-111.996	481.121	230.110	-180.468	534.413	60.845	-86.999	1064.131	651.671	-341.346	1092.195	581.327	-308.481	934.030	591.491	-371.951	955.620	519.727	-348.072	1027.009	462.986	-335.854	1074.159	373.382	-331.391	963.056	375.460	-342.930	963.184	295.320	-340.266	1035.119	71.346	-315.987	951.019	39.235	-284.819	1140.758	21.741	-319.203
393	1.96000	924.871	1320.419	-32.953	981.604	1301.462	-179.650	971.816	1100.067	-19.835	889.363	1017.240	68.353	1002.158	942.411	49.503	1017.008	840.472	111.383	939.700	1299.456	-414.751	990.420	1295.188	-235.394	811.003	1297.979	-310.349	941.126	1119.895	-428.588	824.467	1004.830	-480.058	869.073	898.021	-481.996	815.377	798.377	-519.571	989.054	864.155	-63.229	761.423	920.059	-166.181	761.352	916.003	-218.348	777.104	930.045	-272.638	1019.281	878.001	-321.063	921.458	640.077	2.445	777.697	642.144	-51.725	782.061	567.849	-59.771	819.951	442.565	-26.856	750.293	334.655	-21.915	698.973	285.130	-46.308	706.518	419.840	-90.282	649.244	372.106	-107.841	541.135	195.180	-111.564	493.681	235.445	-180.648	543.150	64.336	-86.555	1068.818	651.343	-342.165	1096.375	580.829	-309.306	938.155	592.239	-372.159	959.194	520.323	-348.236	1030.034	462.990	-336.166	1076.459	372.983	-331.859	965.207	376.062	-343.104	964.783	295.820	-340.130	1035.172	71.372	-315.971	951.140	39.181	-284.767	1140.727	21.915	-319.247
394	1.96500	930.946	1321.596	-33.165	988.007	1302.561	-179.750	977.499	1101.022	-19.728	894.235	1018.341	67.864	1006.647	942.718	49.896	1020.162	840.577	111.696	946.939	1300.509	-414.794	996.969	1296.280	-235.448	817.728	1298.983	-310.930	950.337	1120.920	-428.028	835.365	1004.473	-480.565	881.769	898.395	-481.705	830.329	797.555	-519.272	995.134	865.233	-63.412	767.610	920.743	-166.585	767.606	916.807	-218.736	783.285	931.139	-273.012	1025.503	878.803	-321.309	930.505	641.660	3.574	786.806	641.299	-50.920	792.313	567.033	-58.549	832.165	443.240	-24.940	762.753	336.173	-20.475	711.190	287.027	-45.088	719.940	421.739	-88.926	662.365	374.450	-106.761	552.889	199.045	-111.142	506.428	240.225	-180.818	552.700	67.730	-86.015	1073.343	650.930	-342.998	1100.364	580.240	-310.157	942.073	592.965	-372.291	962.533	520.899	-348.336	1032.827	462.954	-336.458	1078.582	372.565	-332.305	967.205	376.584	-343.220	966.232	296.256	-339.969	1035.205	71.388	-315.929	951.228	39.114	-284.718	1140.677	22.079	-319.265
